<svg width="1080" height="1080" viewBox="0 0 1080 1080" fill="none" xmlns="http://www.w3.org/2000/svg">
<rect width="1080" height="1080" fill="#F9E1CB"/>
<g clip-path="url(#clip0_103_6)">
<path d="M539.5 1000C456.154 1000 379.104 979.463 308.351 938.39C237.597 897.317 181.683 841.403 140.61 770.649C99.5366 699.896 79 622.846 79 539.5C79 456.154 99.5366 379.104 140.61 308.351C181.683 237.597 237.597 181.683 308.351 140.61C379.104 99.5366 456.154 79 539.5 79C622.846 79 699.896 99.5366 770.649 140.61C841.403 181.683 897.317 237.597 938.39 308.351C979.463 379.104 1000 456.154 1000 539.5C1000 622.846 979.463 699.896 938.39 770.649C897.317 841.403 841.403 897.317 770.649 938.39C699.896 979.463 622.846 1000 539.5 1000ZM539.5 136.562C484.936 136.562 432.77 147.206 383.002 168.492C333.234 189.778 290.362 218.409 254.386 254.386C218.409 290.362 189.778 333.234 168.492 383.002C147.206 432.77 136.562 484.936 136.562 539.5C136.562 594.064 147.206 646.23 168.492 695.998C189.778 745.766 218.409 788.638 254.386 824.614C290.362 860.591 333.234 889.222 383.002 910.508C432.77 931.794 484.936 942.438 539.5 942.438C594.064 942.438 646.23 931.794 695.998 910.508C745.766 889.222 788.638 860.591 824.614 824.614C860.591 788.638 889.222 745.766 910.508 695.998C931.794 646.23 942.438 594.064 942.438 539.5C942.438 484.936 931.794 432.77 910.508 383.002C889.222 333.234 860.591 290.362 824.614 254.386C788.638 218.409 745.766 189.778 695.998 168.492C646.23 147.206 594.064 136.562 539.5 136.562ZM872.283 630.341L778.744 606.956L615.051 539.5L783.241 470.245L872.283 447.76C880.678 478.34 884.875 508.92 884.875 539.5C884.875 569.48 880.678 599.761 872.283 630.341ZM592.565 486.435L662.72 318.244L710.389 239.096C764.953 270.275 807.825 313.447 839.005 368.611L757.158 418.079L592.565 486.435ZM539.5 463.949L470.245 296.658L448.659 206.717C479.239 198.322 509.52 194.125 539.5 194.125C569.48 194.125 599.761 198.322 630.341 206.717L607.855 300.256L539.5 463.949ZM322.741 418.079L239.995 368.611C271.175 313.447 314.047 270.275 368.611 239.096L417.18 318.244L486.435 486.435L322.741 418.079ZM464.849 539.5L300.256 606.956L206.717 630.341C198.322 599.761 194.125 569.48 194.125 539.5C194.125 509.52 198.322 478.939 206.717 447.76L296.658 470.245L464.849 539.5ZM486.435 592.565L418.979 756.259L368.611 839.005C314.047 807.825 271.175 764.953 239.995 710.389L318.244 661.82L486.435 592.565ZM539.5 615.051L607.855 778.744L630.341 872.283C599.761 880.678 569.48 884.875 539.5 884.875C509.52 884.875 479.239 880.678 448.659 872.283L470.245 782.342L539.5 615.051ZM760.756 661.82L839.904 710.389C808.725 764.953 765.853 807.825 711.288 839.005L660.921 756.259L592.565 592.565L760.756 661.82Z" fill="#FB8D27"/>
</g>
<defs>
<clipPath id="clip0_103_6">
<rect width="921" height="921" fill="white" transform="translate(79 79)"/>
</clipPath>
</defs>
</svg>
